<svg id="Capa_1" enable-background="new 0 0 512 512" height="512" viewBox="0 0 512 512" width="512" xmlns="http://www.w3.org/2000/svg"><g><path d="m256 0h-15v45h15 15v-45z" fill="#2d5177"/><path d="m256 0h15v45h-15z" fill="#32405d"/><path d="m301 437v30c0 8.276-6.724 15-15 15s-15-6.724-15-15v-212h-15-15v212c0 13.248 5.861 25.052 15 33.296 7.98 7.196 18.433 11.704 30 11.704 24.814 0 45-20.186 45-45v-30z" fill="#2d5177"/><path d="m331 467v-30h-30v30c0 8.276-6.724 15-15 15s-15-6.724-15-15v-212h-15v245.296c7.98 7.196 18.433 11.704 30 11.704 24.814 0 45-20.186 45-45z" fill="#32405d"/><g><path d="m0 270 .015 24.17 21.68-10.737c.263-.147 28.348-13.433 54.305-13.433 19.351 0 42.231 18.501 49.409 25.62l10.783 10.298 119.808-275.918c-145.371 0-256 103.184-256 240z" fill="#f03800"/><path d="m256 30 119.808 275.918 10.783-10.298c7.178-7.119 30.058-25.62 49.409-25.62 25.957 0 54.042 13.286 54.306 13.433l21.694 10.752v-24.185c0-136.816-110.629-240-256-240z" fill="#cd0000"/></g><path d="m256 30c-64.984 0-117.77 122.758-119.808 275.918l10.399-10.298c7.178-7.119 30.058-25.62 49.409-25.62s42.231 18.501 49.409 25.62l10.591 10.474.015.015 10.576-10.488c7.178-7.12 30.058-25.621 49.409-25.621s42.231 18.501 49.409 25.62l10.399 10.298c-2.038-153.16-54.824-275.918-119.808-275.918z" fill="#ff641a"/><path d="m266.591 295.62c7.178-7.119 30.058-25.62 49.409-25.62s42.231 18.501 49.409 25.62l10.399 10.298c-2.038-153.16-54.824-275.918-119.808-275.918v276.094l.015.015z" fill="#f03800"/></g></svg>