<svg id="flat" height="512" viewBox="0 0 512 512" width="512" xmlns="http://www.w3.org/2000/svg"><path d="m56 40h320v448h-320z" fill="#066991"/><path d="m88 40h288v416l-256-48a32 32 0 0 1 -32-32z" fill="#afeaef"/><path d="m324.77 354.118a170.524 170.524 0 0 1 -144.77-168.568v-145.55h-92v336a32 32 0 0 0 32 32l256 48v-94.056z" fill="#77d5d8"/><path d="m120 408 256 48-224-112v32a32 32 0 0 1 -32 32z" fill="#4abdcc"/><path d="m104 40-16 5.333v166.5a161.7 161.7 0 0 0 16 12.167 161.688 161.688 0 0 0 72-134.533v-25.467z" fill="#4abdcc"/><path d="m96 208a161.688 161.688 0 0 1 -72-134.533v-25.467l72-24 72 24v25.467a161.688 161.688 0 0 1 -72 134.533z" fill="#f7b023"/><path d="m96 24 72 24v25.467a161.688 161.688 0 0 1 -72 134.533z" fill="#f99321"/><path d="m280 96h-24v-24h-32v24h-24v32h24v24h32v-24h24z" fill="#f44a2a"/><g fill="#3b9daf"><path d="m144 208h24v16h-24z"/><path d="m184 208h128v16h-128z"/><path d="m144 248h128v16h-128z"/><path d="m288 248h24v16h-24z"/><path d="m144 288h104v16h-104z"/><path d="m264 288h24v16h-24z"/></g><path d="m423.046 72h17.909a15.046 15.046 0 0 1 15.045 15.046v240.954a0 0 0 0 1 0 0h-48a0 0 0 0 1 0 0v-240.954a15.046 15.046 0 0 1 15.046-15.046z" fill="#ce6b6b"/><path d="m439.046 72h-16a15.046 15.046 0 0 0 -15.046 15.046v240.954h16v-240.954a15.046 15.046 0 0 1 15.046-15.046z" fill="#e88080"/><path d="m423.046 72h17.909a15.046 15.046 0 0 1 15.045 15.046v16.954a0 0 0 0 1 0 0h-48a0 0 0 0 1 0 0v-16.954a15.046 15.046 0 0 1 15.046-15.046z" fill="#b7b7b7"/><path d="m439.046 72h-16a15.046 15.046 0 0 0 -15.046 15.046v16.954h16v-16.954a15.046 15.046 0 0 1 15.046-15.046z" fill="#e5e5e5"/><path d="m416 320v80l32-32v-48z" fill="#f7b023"/><path d="m432 336h16v-16h-32v80l16-16z" fill="#f7ce23"/><path d="m496 208h-16v-96h-72v-16h80a8 8 0 0 1 8 8z" fill="#f7ce23"/><path d="m496 208h-16v-96h-56v-16h64a8 8 0 0 1 8 8z" fill="#f7b023"/><path d="m408 264h48v64h-48z" fill="#faa6a6"/><path d="m408 264h16v64h-16z" fill="#f4c7c6"/><circle cx="96" cy="96" fill="#f7ce23" r="40"/><circle cx="84" cy="84" fill="#fff" r="12"/><path d="m42.883 80.168a8.021 8.021 0 0 1 -4.953-11.093 64.487 64.487 0 0 1 14.321-19.781 8.02 8.02 0 0 1 12.081 1.22 8.041 8.041 0 0 1 -1.166 10.476 48.384 48.384 0 0 0 -10.709 14.787 8.045 8.045 0 0 1 -9.574 4.391z" fill="#fff"/><path d="m480 112h8v96h-8z" fill="#f7ce23"/></svg>